<svg width="1000" height="300" viewBox="0 0 1000 300" preserveAspectRatio="xMinYMin meet" xmlns="http://www.w3.org/2000/svg" xmlns:xlink="http://www.w3.org/1999/xlink">
  <defs>
    <linearGradient gradientUnits="userSpaceOnUse" x1="-819.2" x2="819.2" spreadMethod="pad" gradientTransform="matrix(0.1561279296875 -0.0997161865234375 0.0928955078125 0.145416259765625 133.85 125.4)" id="gradient0">
      <stop offset="0" stop-color="#072e66"/>
      <stop offset="1" stop-color="#0a3d8e"/>
    </linearGradient>
    <linearGradient gradientUnits="userSpaceOnUse" x1="-819.2" x2="819.2" spreadMethod="pad" gradientTransform="matrix(-0.0266265869140625 0.045989990234375 -0.0518035888671875 -0.0299835205078125 251.5 179.8)" id="gradient1">
      <stop offset="0" stop-color="#da6202"/>
      <stop offset="1" stop-color="#fd7d07"/>
    </linearGradient>
    <linearGradient gradientUnits="userSpaceOnUse" x1="-819.2" x2="819.2" spreadMethod="pad" gradientTransform="matrix(-0.0630035400390625 0.0280914306640625 -0.017822265625 -0.039947509765625 209.1 234.05)" id="gradient2">
      <stop offset="0" stop-color="#da6202"/>
      <stop offset="1" stop-color="#fd7d07"/>
    </linearGradient>
  </defs>
  <g>
    <path stroke="none" fill="url(#gradient0)" d="M204.8 174.6 L203.6 174.55 132.6 174.55 230.6 74.1 230.6 74.05 Q233.05 71.55 233.45 68.3 L234.95 57.3 Q235.9 50.2 230.85 45.75 226.75 41.85 219.8 41.75 L99.1 41.75 Q92.3 41.85 86.9 45.7 L86.85 45.8 86.8 45.85 Q80.55 50.4 79.7 57.3 L78.05 69.4 Q77.1 76.05 81.7 80.55 L82.15 80.95 Q86.35 84.9 93.3 84.9 L156.7 84.9 58.45 185.4 58.4 185.4 Q56 187.95 55.6 191.2 L54.1 202.2 Q53 209.25 58.55 215.45 62.8 219 71 219.25 L141.45 219.25 Q146.25 219.25 145.3 224.25 L132.35 291.5 Q131.4 296.5 126.65 296.5 L124.15 296.5 85.1 258.2 Q83.65 255.95 81.95 255.85 L42 255.85 Q21.95 255.85 9.8 241.7 -2.35 227.55 0.55 207.5 L22.2 51.9 Q25.05 31.85 41.25 17.65 57.45 3.5 77.5 3.5 L251.4 3.5 Q271.45 3.5 283.6 17.65 295.75 31.85 292.85 51.9 L283 147.65 202.85 166.65 Q199.5 169.15 203.65 173.45 L204.8 174.6"/>
    <path stroke="none" fill="url(#gradient1)" d="M204.8 174.6 L203.65 173.45 Q199.5 169.15 202.85 166.65 L283 147.65 273.45 239.7 272.35 240.3 Q269.45 241.4 266 237.85 L219.75 190.05 204.8 174.6"/>
    <path stroke="none" fill="url(#gradient2)" d="M273.45 239.7 Q271.4 247.85 260.95 248.85 L162.2 258.2 Q157.65 258.65 156.95 255.8 156.25 252.95 158.2 251 L219.75 190.05 266 237.85 Q269.45 241.4 272.35 240.3 L273.45 239.7"/>
    <path stroke="none" fill="#ffffff" d="M991.3 87.15 Q991.7 87.75 991.55 88.55 L985.4 117.75 998 117.75 Q998.6 117.75 999.1 118.1 L999.85 118.95 Q1000.1 119.5 999.95 120.1 L996.2 138.4 995.55 139.55 Q994.95 140 994.25 140 L980.8 140 973.1 176.6 Q971.05 186.6 971 188.05 971 189.9 972.15 191 L972.15 191.05 Q973.55 192.1 977.2 192.1 L985.3 191.5 986.5 191.8 Q987 192.1 987.3 192.7 987.55 193.25 987.4 193.9 L983.55 212.15 983 213.1 Q982.6 213.5 982 213.6 975.45 214.95 968.6 214.95 954.65 214.95 948.35 209.5 941.75 203.95 941.75 194.05 941.75 189.75 944.95 174.25 L952.1 140 942.55 140 Q941.95 140 941.5 139.65 L940.75 138.75 Q940.5 138.25 940.65 137.65 L944.45 119.3 Q944.6 118.65 945.15 118.2 945.7 117.75 946.35 117.75 L956.8 117.75 959.45 104.75 959.8 104 960.4 103.45 988.65 86.5 Q989.25 86.05 990.05 86.25 990.85 86.45 991.3 87.15 M862.75 127.1 Q874.45 115.6 897.5 115.6 915.8 115.6 925.25 122.45 L925.3 122.45 Q934.85 129.3 937.45 141.05 L937.4 142.1 936.8 142.95 935.85 143.4 913.1 147.35 911.75 147.1 Q911.1 146.7 910.9 146.1 909.3 141.8 905.9 139.6 900.9 136.55 893.75 136.55 L893.7 136.55 Q886.8 136.6 883.75 138.7 881.25 140.65 881.15 143.05 881.25 145.5 883.7 147.1 885.8 148.35 897 151.65 L897.05 151.65 Q915.55 157.1 921.85 162.3 931.15 170.05 931.1 181.05 931.2 194.8 919.5 204.95 L919.55 204.95 Q908.2 214.95 887.5 214.95 867.05 215 855.9 207.4 844.55 199.8 840.5 185.9 840.3 185.35 840.5 184.85 840.65 184.3 841.1 183.9 841.5 183.5 842.1 183.45 L865.95 179.7 867.2 179.9 Q867.8 180.25 868.05 180.9 870.95 187.75 875.2 190.65 879.55 193.45 887 193.45 894.65 193.45 899.3 190.05 L899.35 190.05 Q902 188.15 902.05 185.35 L902.05 185.3 Q902.05 183.7 900.8 182.3 L900.75 182.25 Q898.9 180.7 891.35 178.15 868.55 170.6 863.1 166.15 854.05 158.85 854.05 147.1 854.1 135.45 862.75 127.1 M812.15 142.75 Q807.65 138.1 800.4 138.1 793.1 138.15 787.55 142.55 L787.5 142.6 Q781.75 147.3 778.5 156.1 775.2 165.1 775.2 172.7 775.25 181.55 779.95 186.9 L780 186.9 Q784.75 192 791.95 192 801.1 192 807.4 184.1 L807.4 184.05 Q816.7 172.3 816.7 155.45 816.65 147.55 812.15 142.75 M845.1 158.6 Q845.15 181.45 830.5 198.2 815.8 214.95 791.05 214.95 777.65 214.9 767.35 209.65 756.8 204.25 751.65 194.2 746.5 184.35 746.5 173.05 746.55 146.85 761.3 131.3 776.2 115.6 800.3 115.6 821.4 115.6 833.2 127.3 845.1 138.9 845.1 158.6 M747.8 97.9 Q752.75 105.8 752.75 116.65 752.75 126.6 748.9 135.95 L748.9 135.9 Q745 145.35 739.45 150.95 733.8 156.75 727.25 159.6 L727.3 159.6 Q720.95 162.55 710.1 164 L687 164.9 672.05 164.9 662.35 211.25 Q662.2 211.95 661.65 212.4 L660.4 212.8 634.5 212.8 633.4 212.5 Q632.9 212.15 632.65 211.6 632.4 211.05 632.55 210.45 L658.85 84.65 Q659 83.95 659.55 83.55 660.1 83.1 660.8 83.1 L711.95 83.1 Q726 83.15 734.3 86.45 742.85 89.95 747.8 97.9 M722.85 118.75 Q722.9 114.95 721.2 112.45 719.55 110.05 716.55 108.95 L716.5 108.95 Q713.05 107.7 700.9 107.7 L684 107.7 677.15 140.05 682.7 140.05 Q702.65 140.1 709.4 137.65 L709.45 137.65 Q715.7 135.3 719.25 130.15 L719.3 130.1 Q722.85 124.95 722.85 118.75 M592.4 53.3 L591.8 54.35 556.65 86.95 Q556.1 87.45 555.35 87.45 L534.6 87.45 Q533.85 87.45 533.3 86.95 532.7 86.45 532.65 85.7 532.55 84.9 532.95 84.3 L555.65 51.75 556.35 51.15 Q556.75 50.9 557.25 50.9 L590.5 50.9 Q591.1 50.9 591.6 51.25 L592.3 52.2 Q592.55 52.7 592.4 53.3 M558.55 145.05 Q558.55 133.25 553.35 127.2 L553.3 127.2 Q548.1 121.5 539.4 121.5 530.45 121.5 523.45 128.2 516.85 134.5 514.15 146.25 L558.5 146.25 558.55 145.05 M516.45 187.25 L516.5 187.25 Q522.45 193.65 531 193.65 545.4 193.6 553.45 178.65 553.75 178.1 554.35 177.8 L555.55 177.65 583.45 182.3 584.45 182.85 585.05 183.95 Q585.15 184.55 584.85 185.15 576.45 202.55 562.4 211.15 548.35 219.8 530.8 219.8 506.75 219.85 491.65 204.6 476.55 189.4 476.55 164.3 476.6 140 490.05 121.05 508.55 95.35 542.75 95.3 564.75 95.3 577.8 109 590.6 122.35 590.85 146.9 L590.85 147.8 Q590.7 159.25 588.6 167.7 588.45 168.35 587.9 168.8 587.4 169.2 586.7 169.2 L510.45 169.2 510.4 170.1 Q510.5 180.75 516.45 187.25 M479.85 54.5 Q480.35 54.8 480.6 55.4 L480.75 56.5 476 81.5 475.55 82.4 385.8 187.15 464.8 186.6 Q465.4 186.6 465.85 186.95 L466.6 187.85 Q466.85 188.4 466.7 189 L461.2 215.55 Q461.05 216.25 460.5 216.65 L459.25 217.1 335.9 217.1 334.85 216.75 334.1 215.9 Q333.85 215.35 334 214.75 L339.2 189.7 339.6 188.85 428.4 84.7 358.6 84.7 Q358 84.7 357.5 84.35 L356.75 83.5 Q356.5 82.95 356.65 82.35 L362.2 55.75 Q362.35 55.05 362.9 54.6 363.4 54.15 364.1 54.15 L478.75 54.15 Q479.35 54.15 479.85 54.5"/>
  </g>
</svg>